<svg xmlns="http://www.w3.org/2000/svg" width="39" height="39" fill="none" viewBox="0 0 39 39"><g id="Search" clip-path="url(#clip0_4_21)"><path id="Vector" fill="#469A3F" d="M25.1875 22.75H23.9037L23.4487 22.3112C25.0413 20.4587 26 18.0537 26 15.4375C26 9.60375 21.2712 4.875 15.4375 4.875C9.60375 4.875 4.875 9.60375 4.875 15.4375C4.875 21.2712 9.60375 26 15.4375 26C18.0537 26 20.4587 25.0413 22.3112 23.4487L22.75 23.9037V25.1875L30.875 33.2962L33.2962 30.875L25.1875 22.75ZM15.4375 22.75C11.3912 22.75 8.125 19.4837 8.125 15.4375C8.125 11.3912 11.3912 8.125 15.4375 8.125C19.4837 8.125 22.75 11.3912 22.75 15.4375C22.75 19.4837 19.4837 22.75 15.4375 22.75Z"/></g><defs><clipPath id="clip0_4_21"><rect width="39" height="39" fill="#fff"/></clipPath></defs></svg>